# xmcd CD database file
#
# Track frame offsets:
#	150
#	19495
#	31402
#	47340
#	64185
#	78267
#	92245
#	107467
#	121592
#	136925
#	153075
#	169722
#	186340
#	200290
#	211032
#	221777
#	238782
#	249365
#	265342
#	276392
#	285212
#	299172
#	310650
#
# Disc length: 4316 seconds
#
# Revision: 0
# Processed by: cddbd v1.5.2PL0 Copyright (c) Steve Scherf et al.
# Submitted via: CDex 1.70beta2
#
DISCID=4610da17
DTITLE=Jones Country - Jones Country JCY-010
DYEAR=0000
DGENRE=Country
TTITLE0=Marty Robbins/El Paso City
TTITLE1=Marty Robbins/Story Of My Life
TTITLE2=Kenny Rogers/I Don't Need You
TTITLE3=Kenny Rogers/You Decorated My Life
TTITLE4=Kenny Rogers and Dottie West/All I Ever Need Is You
TTITLE5=Kenny Rogers and Dottie West/Every Time Two Fools Collide
TTITLE6=Kenny Rogers and Dottie West/'Til I Can Make It On My Own
TTITLE7=Kenny Rogers and Dottie West/What Are We Doin' In Love
TTITLE8=Sawyer Brown/Betty's Bein' Bad
TTITLE9=Schuyler, Knobloch and Overstreet/You Can't Stop Love
TTITLE10=Dan Seals/My Old Yellow Car
TTITLE11=T G Sheppard/Half Past Forever (Till I'm Blue In The Heart)
TTITLE12=Ricky Skaggs/Crying My Heart Out Over You
TTITLE13=Ricky Skaggs/I Don't Care
TTITLE14=Connie Smith/Once A Day
TTITLE15=J D Souther/You're Only Lonely
TTITLE16=Statler Brothers/Hello Mary Lou
TTITLE17=Statler Brothers/How To Be A Country Star
TTITLE18=Statler Brothers/Nothing As Original As You
TTITLE19=Statler Brothers/Whatever Happened To Randolph Scott
TTITLE20=George Strait/Marina Del Ray
TTITLE21=Sylvia/Drifter
TTITLE22=Mel Tillis/Good Woman Blues
EXTD=YEAR: 0000
EXTT0=
EXTT1=
EXTT2=
EXTT3=
EXTT4=
EXTT5=
EXTT6=
EXTT7=
EXTT8=
EXTT9=
EXTT10=
EXTT11=
EXTT12=
EXTT13=
EXTT14=
EXTT15=
EXTT16=
EXTT17=
EXTT18=
EXTT19=
EXTT20=
EXTT21=
EXTT22=
PLAYORDER=
